<svg width="1440" height="1700" viewBox="0 0 1440 1700" fill="none" xmlns="http://www.w3.org/2000/svg">
<g clip-path="url(#clip0_167_2224)">
<rect width="1440" height="1700" fill="white"/>
<g clip-path="url(#clip1_167_2224)">
<rect width="394" height="254" transform="translate(-53.7266 34.9238) rotate(6.19527)" fill="white"/>
<rect x="-52.3972" y="36.5769" width="391" height="251" transform="rotate(6.19527 -52.3972 36.5769)" fill="white" stroke="black" stroke-width="3"/>
<rect x="-36.2292" y="54.4266" width="358" height="221" transform="rotate(6.19527 -36.2292 54.4266)" fill="#EA8C2C" stroke="black" stroke-width="3"/>
</g>
<g clip-path="url(#clip2_167_2224)">
<rect width="394" height="254" transform="translate(-120.637 651.303) rotate(6.19527)" fill="white"/>
<rect x="-119.307" y="652.956" width="391" height="251" transform="rotate(6.19527 -119.307 652.956)" fill="white" stroke="black" stroke-width="3"/>
<rect x="-103.139" y="670.805" width="358" height="221" transform="rotate(6.19527 -103.139 670.805)" fill="#EA8C2C" stroke="black" stroke-width="3"/>
</g>
<g clip-path="url(#clip3_167_2224)">
<rect width="394" height="254" transform="translate(-153.77 958.621) rotate(6.19527)" fill="white"/>
<rect x="-152.44" y="960.274" width="391" height="251" transform="rotate(6.19527 -152.44 960.274)" fill="white" stroke="black" stroke-width="3"/>
<rect x="-136.272" y="978.124" width="358" height="221" transform="rotate(6.19527 -136.272 978.124)" fill="#EA8C2C" stroke="black" stroke-width="3"/>
<path d="M-2.36482 1087.41L2.64575 1087.96L4.52998 1070.6C5.63074 1060.46 8.85848 1052.96 14.2132 1048.11C19.5809 1043.14 27.0963 1041.18 36.7596 1042.23C46.4228 1043.28 53.3425 1046.81 57.5188 1052.81C61.708 1058.7 63.2523 1066.71 62.1515 1076.85L61.1608 1085.98L42.5501 1083.96L43.6768 1073.58C44.1689 1069.05 43.677 1065.79 42.201 1063.82C40.7381 1061.73 38.4557 1060.52 35.3539 1060.18C32.2521 1059.85 29.7625 1060.54 27.8851 1062.27C26.0207 1063.88 24.8424 1066.95 24.3503 1071.48L22.3301 1090.09L49.8882 1093.08L48.8198 1102.93L21.2617 1099.93L20.1934 1109.78L47.7515 1112.77L46.6831 1122.61L19.125 1119.62L17.0076 1139.12C16.5155 1143.66 17.0074 1146.91 18.4834 1148.88C19.9593 1150.85 22.2482 1152.01 25.35 1152.34C28.4517 1152.68 30.9348 1152.04 32.7993 1150.43C34.6637 1148.83 35.842 1145.76 36.3341 1141.22L37.5579 1129.95L56.1686 1131.97L55.0807 1141.99C53.98 1152.13 50.7458 1159.69 45.3781 1164.66C40.0234 1169.51 32.5144 1171.41 22.8512 1170.36C13.1879 1169.31 6.26171 1165.84 2.0725 1159.95C-2.10376 1153.95 -3.64152 1145.88 -2.54076 1135.73L-0.559398 1117.48L-5.56996 1116.94L-4.50158 1107.1L0.508984 1107.64L1.57737 1097.8L-3.4332 1097.25L-2.36482 1087.41Z" fill="white"/>
<path d="M-2.36482 1087.41L-2.20294 1085.92L-3.69418 1085.76L-3.85606 1087.25L-2.36482 1087.41ZM2.64575 1087.96L2.48387 1089.45L3.97511 1089.61L4.13699 1088.12L2.64575 1087.96ZM14.2132 1048.11L15.2202 1049.22L15.2263 1049.22L15.2323 1049.21L14.2132 1048.11ZM57.5188 1052.81L56.2873 1053.67L56.292 1053.68L56.2967 1053.68L57.5188 1052.81ZM61.1608 1085.98L60.9989 1087.47L62.4902 1087.63L62.6521 1086.14L61.1608 1085.98ZM42.5501 1083.96L41.0589 1083.8L40.897 1085.29L42.3883 1085.45L42.5501 1083.96ZM42.201 1063.82L40.9722 1064.68L40.986 1064.7L41.0004 1064.72L42.201 1063.82ZM27.8851 1062.27L28.8649 1063.41L28.8831 1063.39L28.9008 1063.37L27.8851 1062.27ZM22.3301 1090.09L20.8389 1089.93L20.677 1091.42L22.1682 1091.58L22.3301 1090.09ZM49.8882 1093.08L51.3795 1093.25L51.5413 1091.75L50.0501 1091.59L49.8882 1093.08ZM48.8198 1102.93L48.658 1104.42L50.1492 1104.58L50.3111 1103.09L48.8198 1102.93ZM21.2617 1099.93L21.4236 1098.44L19.9324 1098.28L19.7705 1099.77L21.2617 1099.93ZM20.1934 1109.78L18.7021 1109.61L18.5402 1111.11L20.0315 1111.27L20.1934 1109.78ZM47.7515 1112.77L49.2427 1112.93L49.4046 1111.44L47.9133 1111.28L47.7515 1112.77ZM46.6831 1122.61L46.5212 1124.1L48.0124 1124.26L48.1743 1122.77L46.6831 1122.61ZM19.125 1119.62L19.2868 1118.13L17.7956 1117.97L17.6337 1119.46L19.125 1119.62ZM37.5579 1129.95L37.7198 1128.46L36.2285 1128.3L36.0666 1129.79L37.5579 1129.95ZM56.1686 1131.97L57.6598 1132.13L57.8217 1130.64L56.3304 1130.48L56.1686 1131.97ZM45.3781 1164.66L46.3851 1165.77L46.3912 1165.76L46.3972 1165.76L45.3781 1164.66ZM2.0725 1159.95L0.840982 1160.81L0.845649 1160.82L0.850388 1160.82L2.0725 1159.95ZM-0.559398 1117.48L0.931842 1117.64L1.09372 1116.15L-0.397522 1115.99L-0.559398 1117.48ZM-5.56996 1116.94L-7.0612 1116.78L-7.22308 1118.27L-5.73184 1118.43L-5.56996 1116.94ZM-4.50158 1107.1L-4.33971 1105.6L-5.83095 1105.44L-5.99282 1106.93L-4.50158 1107.1ZM0.508984 1107.64L0.347108 1109.13L1.83835 1109.29L2.00022 1107.8L0.508984 1107.64ZM1.57737 1097.8L3.06861 1097.96L3.23048 1096.47L1.73924 1096.31L1.57737 1097.8ZM-3.4332 1097.25L-4.92444 1097.09L-5.08632 1098.58L-3.59508 1098.75L-3.4332 1097.25ZM-2.52669 1088.9L2.48387 1089.45L2.80762 1086.46L-2.20294 1085.92L-2.52669 1088.9ZM4.13699 1088.12L6.02122 1070.76L3.03874 1070.44L1.15451 1087.79L4.13699 1088.12ZM6.02122 1070.76C7.09857 1060.83 10.2317 1053.74 15.2202 1049.22L13.2062 1047C7.48522 1052.18 4.16291 1060.08 3.03874 1070.44L6.02122 1070.76ZM15.2323 1049.21C20.1852 1044.63 27.2159 1042.7 36.5977 1043.72L36.9214 1040.74C26.9767 1039.66 18.9766 1041.66 13.1941 1047.01L15.2323 1049.21ZM36.5977 1043.72C45.9794 1044.74 52.4338 1048.13 56.2873 1053.67L58.7503 1051.96C54.2513 1045.49 46.8661 1041.82 36.9214 1040.74L36.5977 1043.72ZM56.2967 1053.68C60.1994 1059.17 61.7376 1066.77 60.6603 1076.69L63.6427 1077.01C64.7669 1066.66 63.2167 1058.23 58.7409 1051.94L56.2967 1053.68ZM60.6603 1076.69L59.6696 1085.82L62.6521 1086.14L63.6427 1077.01L60.6603 1076.69ZM61.3227 1084.49L42.712 1082.47L42.3883 1085.45L60.9989 1087.47L61.3227 1084.49ZM44.0414 1084.12L45.168 1073.74L42.1856 1073.42L41.0589 1083.8L44.0414 1084.12ZM45.168 1073.74C45.67 1069.12 45.2336 1065.37 43.4017 1062.92L41.0004 1064.72C42.1203 1066.22 42.6678 1068.97 42.1856 1073.42L45.168 1073.74ZM43.4299 1062.96C41.6645 1060.44 38.9433 1059.06 35.5158 1058.69L35.192 1061.67C37.968 1061.98 39.8116 1063.03 40.9722 1064.68L43.4299 1062.96ZM35.5158 1058.69C32.0882 1058.32 29.1349 1059.08 26.8695 1061.17L28.9008 1063.37C30.3901 1062 32.416 1061.37 35.192 1061.67L35.5158 1058.69ZM26.9054 1061.13C24.5912 1063.13 23.361 1066.7 22.8591 1071.32L25.8416 1071.64C26.3238 1067.2 27.4502 1064.63 28.8649 1063.41L26.9054 1061.13ZM22.8591 1071.32L20.8389 1089.93L23.8214 1090.25L25.8416 1071.64L22.8591 1071.32ZM22.1682 1091.58L49.7264 1094.57L50.0501 1091.59L22.492 1088.6L22.1682 1091.58ZM48.397 1092.92L47.3286 1102.76L50.3111 1103.09L51.3795 1093.25L48.397 1092.92ZM48.9817 1101.43L21.4236 1098.44L21.0999 1101.43L48.658 1104.42L48.9817 1101.43ZM19.7705 1099.77L18.7021 1109.61L21.6846 1109.94L22.753 1100.1L19.7705 1099.77ZM20.0315 1111.27L47.5896 1114.26L47.9133 1111.28L20.3552 1108.29L20.0315 1111.27ZM46.2602 1112.61L45.1918 1122.45L48.1743 1122.77L49.2427 1112.93L46.2602 1112.61ZM46.845 1121.12L19.2868 1118.13L18.9631 1121.11L46.5212 1124.1L46.845 1121.12ZM17.6337 1119.46L15.5164 1138.96L18.4989 1139.29L20.6162 1119.78L17.6337 1119.46ZM15.5164 1138.96C15.0145 1143.59 15.4508 1147.33 17.2828 1149.78L19.684 1147.98C18.5641 1146.49 18.0166 1143.73 18.4989 1139.29L15.5164 1138.96ZM17.2828 1149.78C19.0708 1152.17 21.7904 1153.46 25.1881 1153.83L25.5118 1150.85C22.706 1150.55 20.8478 1149.54 19.684 1147.98L17.2828 1149.78ZM25.1881 1153.83C28.5858 1154.2 31.5203 1153.52 33.779 1151.57L31.8196 1149.3C30.3494 1150.57 28.3177 1151.16 25.5118 1150.85L25.1881 1153.83ZM33.779 1151.57C36.0932 1149.57 37.3234 1146.01 37.8253 1141.38L34.8429 1141.06C34.3606 1145.5 33.2343 1148.08 31.8196 1149.3L33.779 1151.57ZM37.8253 1141.38L39.0491 1130.11L36.0666 1129.79L34.8429 1141.06L37.8253 1141.38ZM37.396 1131.44L56.0067 1133.46L56.3304 1130.48L37.7198 1128.46L37.396 1131.44ZM54.6773 1131.81L53.5895 1141.83L56.572 1142.15L57.6598 1132.13L54.6773 1131.81ZM53.5895 1141.83C52.5125 1151.75 49.3729 1158.91 44.359 1163.55L46.3972 1165.76C52.1187 1160.46 55.4475 1152.51 56.572 1142.15L53.5895 1141.83ZM44.3711 1163.54C39.4332 1168.02 32.4047 1169.89 23.013 1168.87L22.6893 1171.85C32.6241 1172.93 40.6135 1170.99 46.3851 1165.77L44.3711 1163.54ZM23.013 1168.87C13.6214 1167.85 7.15769 1164.51 3.29461 1159.08L0.850388 1160.82C5.36574 1167.17 12.7545 1170.77 22.6893 1171.85L23.013 1168.87ZM3.30402 1159.1C-0.596943 1153.49 -2.12657 1145.82 -1.04952 1135.9L-4.032 1135.57C-5.15646 1145.93 -3.61059 1154.41 0.840982 1160.81L3.30402 1159.1ZM-1.04952 1135.9L0.931842 1117.64L-2.05064 1117.32L-4.032 1135.57L-1.04952 1135.9ZM-0.397522 1115.99L-5.40809 1115.45L-5.73184 1118.43L-0.721274 1118.97L-0.397522 1115.99ZM-4.07872 1117.1L-3.01034 1107.26L-5.99282 1106.93L-7.0612 1116.78L-4.07872 1117.1ZM-4.66346 1108.59L0.347108 1109.13L0.67086 1106.15L-4.33971 1105.6L-4.66346 1108.59ZM2.00022 1107.8L3.06861 1097.96L0.0861261 1097.64L-0.982256 1107.48L2.00022 1107.8ZM1.73924 1096.31L-3.27132 1095.76L-3.59508 1098.75L1.41549 1099.29L1.73924 1096.31ZM-1.94196 1097.42L-0.873578 1087.57L-3.85606 1087.25L-4.92444 1097.09L-1.94196 1097.42Z" fill="black"/>
</g>
<g clip-path="url(#clip4_167_2224)">
<rect width="394" height="254" transform="translate(731.465 742.793) rotate(6.19527)" fill="white"/>
<rect x="732.794" y="744.446" width="391" height="251" transform="rotate(6.19527 732.794 744.446)" fill="white" stroke="black" stroke-width="3"/>
<rect x="748.962" y="762.296" width="358" height="221" transform="rotate(6.19527 748.962 762.296)" fill="#EA8C2C" stroke="black" stroke-width="3"/>
</g>
<g clip-path="url(#clip5_167_2224)">
<rect width="394" height="254" transform="translate(698.336 1050.11) rotate(6.19527)" fill="white"/>
<rect x="699.665" y="1051.76" width="391" height="251" transform="rotate(6.19527 699.665 1051.76)" fill="white" stroke="black" stroke-width="3"/>
<rect x="715.833" y="1069.61" width="358" height="221" transform="rotate(6.19527 715.833 1069.61)" fill="#EA8C2C" stroke="black" stroke-width="3"/>
<path d="M849.559 1217.26C850.259 1210.82 851.862 1205.5 854.369 1201.31C857.009 1197.01 860.891 1194.05 866.015 1192.44C857.363 1187.63 853.762 1178.55 855.212 1165.19L855.465 1162.86C856.565 1152.72 859.787 1145.29 865.128 1140.56C870.589 1135.84 878.271 1134.02 888.173 1135.09L910.72 1137.54L908.778 1155.43L886.588 1153.03C883.486 1152.69 880.944 1153.32 878.96 1154.91C876.976 1156.51 875.738 1159.57 875.246 1164.11L874.411 1171.8C873.867 1176.81 874.505 1180.38 876.326 1182.51C878.267 1184.65 881.086 1185.92 884.784 1186.33L893.374 1187.26L894.889 1173.3L914.573 1175.44L913.058 1189.39L918.247 1189.96L916.305 1207.85L911.115 1207.29L906.648 1248.45C906.311 1251.55 906.132 1254.31 906.112 1256.72C906.105 1259.01 906.448 1261.4 907.144 1263.89L887.102 1261.72C886.767 1260.35 886.545 1259.06 886.436 1257.84C886.34 1256.5 886.321 1254.45 886.381 1251.68C882.105 1258.82 875.613 1261.92 866.904 1260.97C859.627 1260.18 854.404 1257.14 851.237 1251.85C848.189 1246.57 847.17 1239.28 848.18 1229.97L849.559 1217.26ZM868.039 1230.5C867.547 1235.03 868.092 1238.35 869.675 1240.45C871.389 1242.45 873.797 1243.61 876.899 1243.95C879.882 1244.27 882.358 1243.7 884.329 1242.22C886.3 1240.75 887.618 1238.05 888.284 1234.14L891.431 1205.15L883.915 1204.34C879.382 1203.84 875.972 1204.68 873.685 1206.85C871.397 1209.01 869.937 1213.02 869.302 1218.86L868.039 1230.5Z" fill="white"/>
<path d="M854.369 1201.31L853.091 1200.53L853.086 1200.53L853.082 1200.54L854.369 1201.31ZM866.015 1192.44L866.466 1193.87L869.793 1192.82L866.743 1191.12L866.015 1192.44ZM865.128 1140.56L864.148 1139.42L864.141 1139.43L864.134 1139.43L865.128 1140.56ZM910.72 1137.54L912.212 1137.7L912.373 1136.21L910.882 1136.05L910.72 1137.54ZM908.778 1155.43L908.616 1156.93L910.107 1157.09L910.269 1155.6L908.778 1155.43ZM876.326 1182.51L875.186 1183.48L875.2 1183.5L875.215 1183.52L876.326 1182.51ZM893.374 1187.26L893.212 1188.75L894.703 1188.91L894.865 1187.42L893.374 1187.26ZM894.889 1173.3L895.051 1171.81L893.559 1171.65L893.397 1173.14L894.889 1173.3ZM914.573 1175.44L916.064 1175.6L916.226 1174.11L914.735 1173.94L914.573 1175.44ZM913.058 1189.39L911.567 1189.23L911.405 1190.72L912.896 1190.89L913.058 1189.39ZM918.247 1189.96L919.739 1190.12L919.901 1188.63L918.409 1188.47L918.247 1189.96ZM916.305 1207.85L916.143 1209.34L917.634 1209.51L917.796 1208.01L916.305 1207.85ZM911.115 1207.29L911.277 1205.8L909.786 1205.64L909.624 1207.13L911.115 1207.29ZM906.112 1256.72L904.612 1256.71L904.612 1256.71L906.112 1256.72ZM907.144 1263.89L906.982 1265.38L909.185 1265.62L908.589 1263.49L907.144 1263.89ZM887.102 1261.72L885.645 1262.07L885.895 1263.09L886.94 1263.21L887.102 1261.72ZM886.436 1257.84L884.94 1257.95L884.941 1257.96L884.942 1257.97L886.436 1257.84ZM886.381 1251.68L887.88 1251.71L888.001 1246.05L885.094 1250.91L886.381 1251.68ZM851.237 1251.85L849.938 1252.6L849.944 1252.61L849.95 1252.62L851.237 1251.85ZM869.675 1240.45L868.476 1241.35L868.505 1241.39L868.537 1241.43L869.675 1240.45ZM888.284 1234.14L889.763 1234.39L889.771 1234.35L889.775 1234.3L888.284 1234.14ZM891.431 1205.15L892.922 1205.31L893.084 1203.82L891.593 1203.66L891.431 1205.15ZM873.685 1206.85L874.716 1207.94L874.716 1207.94L873.685 1206.85ZM851.051 1217.43C851.734 1211.13 853.29 1206.04 855.657 1202.08L853.082 1200.54C850.434 1204.97 848.784 1210.51 848.068 1217.1L851.051 1217.43ZM855.648 1202.09C858.085 1198.12 861.662 1195.38 866.466 1193.87L865.564 1191C860.119 1192.72 855.932 1195.9 853.091 1200.53L855.648 1202.09ZM866.743 1191.12C862.716 1188.89 859.89 1185.68 858.219 1181.47C856.536 1177.22 855.995 1171.88 856.703 1165.35L853.721 1165.03C852.979 1171.87 853.513 1177.74 855.431 1182.58C857.361 1187.44 860.662 1191.18 865.287 1193.75L866.743 1191.12ZM856.703 1165.35L856.956 1163.03L853.973 1162.7L853.721 1165.03L856.703 1165.35ZM856.956 1163.03C858.034 1153.1 861.16 1146.07 866.123 1141.68L864.134 1139.43C858.413 1144.5 855.097 1152.35 853.973 1162.7L856.956 1163.03ZM866.109 1141.69C871.15 1137.34 878.361 1135.54 888.011 1136.58L888.335 1133.6C878.181 1132.5 870.029 1134.34 864.148 1139.42L866.109 1141.69ZM888.011 1136.58L910.558 1139.03L910.882 1136.05L888.335 1133.6L888.011 1136.58ZM909.229 1137.38L907.287 1155.27L910.269 1155.6L912.212 1137.7L909.229 1137.38ZM908.94 1153.94L886.75 1151.53L886.426 1154.52L908.616 1156.93L908.94 1153.94ZM886.75 1151.53C883.348 1151.16 880.381 1151.85 878.02 1153.74L879.9 1156.08C881.506 1154.79 883.625 1154.21 886.426 1154.52L886.75 1151.53ZM878.02 1153.74C875.557 1155.72 874.259 1159.3 873.755 1163.94L876.737 1164.27C877.218 1159.84 878.395 1157.29 879.9 1156.08L878.02 1153.74ZM873.755 1163.94L872.92 1171.64L875.902 1171.96L876.737 1164.27L873.755 1163.94ZM872.92 1171.64C872.364 1176.76 872.948 1180.87 875.186 1183.48L877.466 1181.54C876.063 1179.89 875.37 1176.86 875.902 1171.96L872.92 1171.64ZM875.215 1183.52C877.466 1186 880.666 1187.39 884.622 1187.82L884.946 1184.83C881.505 1184.46 879.067 1183.3 877.438 1181.5L875.215 1183.52ZM884.622 1187.82L893.212 1188.75L893.535 1185.77L884.946 1184.83L884.622 1187.82ZM894.865 1187.42L896.38 1173.46L893.397 1173.14L891.882 1187.1L894.865 1187.42ZM894.727 1174.79L914.411 1176.93L914.735 1173.94L895.051 1171.81L894.727 1174.79ZM913.082 1175.27L911.567 1189.23L914.549 1189.56L916.064 1175.6L913.082 1175.27ZM912.896 1190.89L918.086 1191.45L918.409 1188.47L913.22 1187.9L912.896 1190.89ZM916.756 1189.8L914.814 1207.69L917.796 1208.01L919.739 1190.12L916.756 1189.8ZM916.467 1206.36L911.277 1205.8L910.954 1208.78L916.143 1209.34L916.467 1206.36ZM909.624 1207.13L905.156 1248.29L908.139 1248.61L912.607 1207.45L909.624 1207.13ZM905.156 1248.29C904.816 1251.42 904.633 1254.23 904.612 1256.71L907.612 1256.73C907.632 1254.38 907.806 1251.67 908.139 1248.61L905.156 1248.29ZM904.612 1256.71C904.604 1259.16 904.971 1261.69 905.699 1264.29L908.589 1263.49C907.926 1261.11 907.605 1258.86 907.612 1256.72L904.612 1256.71ZM907.306 1262.4L887.263 1260.22L886.94 1263.21L906.982 1265.38L907.306 1262.4ZM888.558 1261.36C888.239 1260.06 888.031 1258.84 887.93 1257.71L884.942 1257.97C885.059 1259.28 885.295 1260.65 885.645 1262.07L888.558 1261.36ZM887.932 1257.73C887.841 1256.47 887.821 1254.47 887.88 1251.71L884.881 1251.65C884.821 1254.43 884.838 1256.54 884.94 1257.95L887.932 1257.73ZM885.094 1250.91C883.083 1254.27 880.599 1256.6 877.659 1258C874.714 1259.41 871.204 1259.93 867.066 1259.48L866.742 1262.46C871.313 1262.96 875.404 1262.4 878.951 1260.71C882.503 1259.02 885.402 1256.23 887.667 1252.45L885.094 1250.91ZM867.066 1259.48C860.158 1258.73 855.404 1255.89 852.524 1251.08L849.95 1252.62C853.405 1258.39 859.096 1261.63 866.742 1262.46L867.066 1259.48ZM852.536 1251.1C849.712 1246.21 848.678 1239.28 849.671 1230.13L846.689 1229.81C845.662 1239.27 846.666 1246.93 849.938 1252.6L852.536 1251.1ZM849.671 1230.13L851.051 1217.43L848.068 1217.1L846.689 1229.81L849.671 1230.13ZM866.548 1230.33C866.043 1234.99 866.547 1238.79 868.476 1241.35L870.873 1239.55C869.638 1237.91 869.052 1235.07 869.531 1230.66L866.548 1230.33ZM868.537 1241.43C870.544 1243.77 873.331 1245.07 876.737 1245.44L877.061 1242.46C874.263 1242.16 872.234 1241.13 870.813 1239.47L868.537 1241.43ZM876.737 1245.44C880.011 1245.8 882.89 1245.17 885.228 1243.42L883.43 1241.02C881.827 1242.22 879.753 1242.75 877.061 1242.46L876.737 1245.44ZM885.228 1243.42C887.648 1241.61 889.07 1238.46 889.763 1234.39L886.805 1233.89C886.166 1237.64 884.952 1239.88 883.43 1241.02L885.228 1243.42ZM889.775 1234.3L892.922 1205.31L889.94 1204.99L886.793 1233.98L889.775 1234.3ZM891.593 1203.66L884.077 1202.85L883.753 1205.83L891.269 1206.64L891.593 1203.66ZM884.077 1202.85C879.308 1202.33 875.382 1203.17 872.653 1205.76L874.716 1207.94C876.561 1206.19 879.456 1205.36 883.753 1205.83L884.077 1202.85ZM872.653 1205.76C869.962 1208.31 868.455 1212.77 867.811 1218.7L870.793 1219.03C871.419 1213.27 872.832 1209.72 874.716 1207.94L872.653 1205.76ZM867.811 1218.7L866.548 1230.33L869.531 1230.66L870.793 1219.03L867.811 1218.7Z" fill="black"/>
</g>
<g clip-path="url(#clip6_167_2224)">
<rect width="394" height="254" transform="translate(798.16 128.402) rotate(6.19527)" fill="white"/>
<rect x="799.49" y="130.055" width="391" height="251" transform="rotate(6.19527 799.49 130.055)" fill="white" stroke="black" stroke-width="3"/>
<rect x="815.657" y="147.905" width="358" height="221" transform="rotate(6.19527 815.657 147.905)" fill="#EA8C2C" stroke="black" stroke-width="3"/>
</g>
<g clip-path="url(#clip7_167_2224)">
<rect width="394" height="254" transform="translate(378.625 82.8613) rotate(6.19527)" fill="white"/>
<rect x="379.954" y="84.5144" width="391" height="251" transform="rotate(6.19527 379.954 84.5144)" fill="white" stroke="black" stroke-width="3"/>
<rect x="396.122" y="102.364" width="358" height="221" transform="rotate(6.19527 396.122 102.364)" fill="#EA8C2C" stroke="black" stroke-width="3"/>
</g>
<g clip-path="url(#clip8_167_2224)">
<rect width="394" height="254" transform="translate(311.715 699.24) rotate(6.19527)" fill="white"/>
<rect x="313.044" y="700.893" width="391" height="251" transform="rotate(6.19527 313.044 700.893)" fill="white" stroke="black" stroke-width="3"/>
<rect x="329.212" y="718.743" width="358" height="221" transform="rotate(6.19527 329.212 718.743)" fill="#EA8C2C" stroke="black" stroke-width="3"/>
</g>
<g clip-path="url(#clip9_167_2224)">
<rect width="394" height="254" transform="translate(278.582 1006.55) rotate(6.19527)" fill="white"/>
<rect x="279.911" y="1008.21" width="391" height="251" transform="rotate(6.19527 279.911 1008.21)" fill="white" stroke="black" stroke-width="3"/>
<rect x="296.079" y="1026.06" width="358" height="221" transform="rotate(6.19527 296.079 1026.06)" fill="#EA8C2C" stroke="black" stroke-width="3"/>
<path d="M481.254 1169.38L494.521 1125.55L511.879 1127.44L504.963 1191.14L493.153 1189.86L498.067 1144.59L484.742 1188.95L472.931 1187.67L468.323 1141.72L463.447 1186.64L452.531 1185.45L459.447 1121.74L476.805 1123.63L481.254 1169.38ZM413.278 1116.73L451.931 1120.93L450.687 1132.38L437.624 1130.96L431.952 1183.22L419.426 1181.86L425.098 1129.6L412.035 1128.19L413.278 1116.73Z" fill="white"/>
<path d="M481.254 1169.38L479.761 1169.52L482.689 1169.81L481.254 1169.38ZM494.521 1125.55L494.682 1124.06L493.445 1123.93L493.085 1125.12L494.521 1125.55ZM511.879 1127.44L513.37 1127.6L513.532 1126.11L512.04 1125.95L511.879 1127.44ZM504.963 1191.14L504.801 1192.63L506.293 1192.8L506.454 1191.3L504.963 1191.14ZM493.153 1189.86L491.661 1189.7L491.499 1191.19L492.991 1191.35L493.153 1189.86ZM498.067 1144.59L499.558 1144.75L496.631 1144.15L498.067 1144.59ZM484.742 1188.95L484.58 1190.44L485.82 1190.57L486.179 1189.38L484.742 1188.95ZM472.931 1187.67L471.439 1187.81L471.56 1189.03L472.769 1189.16L472.931 1187.67ZM468.323 1141.72L469.815 1141.57L466.832 1141.56L468.323 1141.72ZM463.447 1186.64L463.285 1188.13L464.776 1188.29L464.938 1186.8L463.447 1186.64ZM452.531 1185.45L451.04 1185.29L450.878 1186.78L452.369 1186.94L452.531 1185.45ZM459.447 1121.74L459.608 1120.25L458.117 1120.09L457.955 1121.58L459.447 1121.74ZM476.805 1123.63L478.298 1123.48L478.179 1122.27L476.966 1122.14L476.805 1123.63ZM413.278 1116.73L413.44 1115.24L411.948 1115.08L411.787 1116.57L413.278 1116.73ZM451.931 1120.93L453.422 1121.09L453.584 1119.6L452.093 1119.44L451.931 1120.93ZM450.687 1132.38L450.526 1133.87L452.017 1134.03L452.179 1132.54L450.687 1132.38ZM437.624 1130.96L437.786 1129.47L436.295 1129.31L436.133 1130.8L437.624 1130.96ZM431.952 1183.22L431.79 1184.71L433.281 1184.87L433.443 1183.38L431.952 1183.22ZM419.426 1181.86L417.934 1181.7L417.773 1183.19L419.264 1183.35L419.426 1181.86ZM425.098 1129.6L426.589 1129.77L426.751 1128.27L425.26 1128.11L425.098 1129.6ZM412.035 1128.19L410.543 1128.02L410.381 1129.52L411.873 1129.68L412.035 1128.19ZM482.689 1169.81L495.956 1125.99L493.085 1125.12L479.818 1168.94L482.689 1169.81ZM494.359 1127.04L511.717 1128.93L512.04 1125.95L494.682 1124.06L494.359 1127.04ZM510.387 1127.27L503.472 1190.98L506.454 1191.3L513.37 1127.6L510.387 1127.27ZM505.125 1189.65L493.314 1188.37L492.991 1191.35L504.801 1192.63L505.125 1189.65ZM494.644 1190.02L499.558 1144.75L496.576 1144.42L491.661 1189.7L494.644 1190.02ZM496.631 1144.15L483.305 1188.52L486.179 1189.38L499.504 1145.02L496.631 1144.15ZM484.904 1187.46L473.093 1186.17L472.769 1189.16L484.58 1190.44L484.904 1187.46ZM474.424 1187.52L469.815 1141.57L466.83 1141.87L471.439 1187.81L474.424 1187.52ZM466.832 1141.56L461.956 1186.47L464.938 1186.8L469.814 1141.88L466.832 1141.56ZM463.609 1185.14L452.693 1183.96L452.369 1186.94L463.285 1188.13L463.609 1185.14ZM454.022 1185.61L460.938 1121.91L457.955 1121.58L451.04 1185.29L454.022 1185.61ZM459.285 1123.24L476.643 1125.12L476.966 1122.14L459.608 1120.25L459.285 1123.24ZM475.312 1123.77L479.761 1169.52L482.747 1169.23L478.298 1123.48L475.312 1123.77ZM413.116 1118.22L451.769 1122.42L452.093 1119.44L413.44 1115.24L413.116 1118.22ZM450.439 1120.77L449.196 1132.22L452.179 1132.54L453.422 1121.09L450.439 1120.77ZM450.849 1130.89L437.786 1129.47L437.462 1132.46L450.526 1133.87L450.849 1130.89ZM436.133 1130.8L430.461 1183.05L433.443 1183.38L439.115 1131.13L436.133 1130.8ZM432.114 1181.73L419.588 1180.37L419.264 1183.35L431.79 1184.71L432.114 1181.73ZM420.917 1182.02L426.589 1129.77L423.607 1129.44L417.934 1181.7L420.917 1182.02ZM425.26 1128.11L412.196 1126.69L411.873 1129.68L424.936 1131.1L425.26 1128.11ZM413.526 1128.35L414.769 1116.9L411.787 1116.57L410.543 1128.02L413.526 1128.35Z" fill="black"/>
</g>
<g clip-path="url(#clip10_167_2224)">
<rect width="394" height="254" transform="translate(1163.82 790.73) rotate(6.19527)" fill="white"/>
<rect x="1165.15" y="792.384" width="391" height="251" transform="rotate(6.19527 1165.15 792.384)" fill="white" stroke="black" stroke-width="3"/>
<rect x="1181.31" y="810.233" width="358" height="221" transform="rotate(6.19527 1181.31 810.233)" fill="#EA8C2C" stroke="black" stroke-width="3"/>
</g>
<g clip-path="url(#clip11_167_2224)">
<rect width="394" height="254" transform="translate(1130.69 1098.05) rotate(6.19527)" fill="white"/>
<rect x="1132.02" y="1099.7" width="391" height="251" transform="rotate(6.19527 1132.02 1099.7)" fill="white" stroke="black" stroke-width="3"/>
<rect x="1148.18" y="1117.55" width="358" height="221" transform="rotate(6.19527 1148.18 1117.55)" fill="#EA8C2C" stroke="black" stroke-width="3"/>
<path d="M1269 1276.12L1271.41 1230.57L1277.08 1178.32L1296.76 1180.45L1291.09 1232.71L1283.67 1277.71L1269 1276.12ZM1284.87 1286.71L1282.81 1305.68L1263.84 1303.62L1265.9 1284.65L1284.87 1286.71ZM1314.89 1281.1C1314.4 1278.87 1314.32 1276.27 1314.65 1273.28C1315.14 1268.75 1316.1 1264.87 1317.54 1261.65C1318.98 1258.43 1320.62 1255.53 1322.47 1252.95C1324.33 1250.26 1326.35 1247.76 1328.53 1245.46C1330.73 1243.04 1332.76 1240.43 1334.63 1237.61C1336.51 1234.8 1338.18 1231.6 1339.66 1228.02C1341.15 1224.32 1342.18 1219.84 1342.75 1214.59C1343.24 1210.06 1342.69 1206.8 1341.09 1204.82C1339.63 1202.73 1337.35 1201.52 1334.24 1201.18C1331.14 1200.84 1328.59 1201.53 1326.6 1203.25C1324.73 1204.85 1323.55 1207.92 1323.06 1212.46L1321.58 1226.06L1302.97 1224.04L1304.31 1211.69C1305.42 1201.55 1308.64 1194.05 1314 1189.2C1319.48 1184.25 1327.06 1182.29 1336.72 1183.34C1346.39 1184.39 1353.31 1187.92 1357.48 1193.92C1361.79 1199.82 1363.39 1207.84 1362.29 1217.98C1361.7 1223.47 1360.58 1228.18 1358.95 1232.11C1357.45 1235.93 1355.63 1239.35 1353.49 1242.38C1351.47 1245.42 1349.3 1248.2 1346.97 1250.72C1344.66 1253.13 1342.46 1255.54 1340.39 1257.97C1338.44 1260.42 1336.7 1263.07 1335.18 1265.92C1333.79 1268.78 1332.88 1272.13 1332.46 1275.94C1332.18 1278.57 1332.17 1280.92 1332.42 1283L1314.89 1281.1ZM1332.01 1291.83L1329.95 1310.8L1310.98 1308.74L1313.04 1289.77L1332.01 1291.83Z" fill="white"/>
<path d="M1269 1276.12L1267.5 1276.04L1267.43 1277.45L1268.84 1277.61L1269 1276.12ZM1271.41 1230.57L1269.92 1230.41L1269.91 1230.45L1269.91 1230.49L1271.41 1230.57ZM1277.08 1178.32L1277.24 1176.82L1275.75 1176.66L1275.59 1178.15L1277.08 1178.32ZM1296.76 1180.45L1298.26 1180.61L1298.42 1179.12L1296.93 1178.96L1296.76 1180.45ZM1291.09 1232.71L1292.57 1232.95L1292.58 1232.91L1292.58 1232.87L1291.09 1232.71ZM1283.67 1277.71L1283.51 1279.2L1284.92 1279.35L1285.15 1277.95L1283.67 1277.71ZM1284.87 1286.71L1286.36 1286.87L1286.52 1285.38L1285.03 1285.22L1284.87 1286.71ZM1282.81 1305.68L1282.65 1307.17L1284.14 1307.33L1284.3 1305.84L1282.81 1305.68ZM1263.84 1303.62L1262.35 1303.46L1262.19 1304.95L1263.68 1305.11L1263.84 1303.62ZM1265.9 1284.65L1266.06 1283.16L1264.57 1283L1264.41 1284.49L1265.9 1284.65ZM1270.5 1276.19L1272.91 1230.65L1269.91 1230.49L1267.5 1276.04L1270.5 1276.19ZM1272.9 1230.73L1278.57 1178.48L1275.59 1178.15L1269.92 1230.41L1272.9 1230.73ZM1276.92 1179.81L1296.6 1181.94L1296.93 1178.96L1277.24 1176.82L1276.92 1179.81ZM1295.27 1180.29L1289.6 1232.54L1292.58 1232.87L1298.26 1180.61L1295.27 1180.29ZM1289.61 1232.46L1282.19 1277.46L1285.15 1277.95L1292.57 1232.95L1289.61 1232.46ZM1283.83 1276.22L1269.16 1274.62L1268.84 1277.61L1283.51 1279.2L1283.83 1276.22ZM1283.38 1286.55L1281.32 1305.52L1284.3 1305.84L1286.36 1286.87L1283.38 1286.55ZM1282.97 1304.19L1264 1302.13L1263.68 1305.11L1282.65 1307.17L1282.97 1304.19ZM1265.33 1303.78L1267.39 1284.81L1264.41 1284.49L1262.35 1303.46L1265.33 1303.78ZM1265.74 1286.14L1284.71 1288.2L1285.03 1285.22L1266.06 1283.16L1265.74 1286.14ZM1314.89 1281.1L1313.42 1281.41L1313.65 1282.47L1314.72 1282.59L1314.89 1281.1ZM1317.54 1261.65L1318.91 1262.26L1318.91 1262.26L1317.54 1261.65ZM1322.47 1252.95L1323.69 1253.82L1323.69 1253.81L1323.7 1253.8L1322.47 1252.95ZM1328.53 1245.46L1329.62 1246.49L1329.63 1246.48L1329.64 1246.47L1328.53 1245.46ZM1334.63 1237.61L1335.88 1238.45L1335.88 1238.45L1334.63 1237.61ZM1339.66 1228.02L1341.05 1228.59L1341.05 1228.58L1339.66 1228.02ZM1341.09 1204.82L1339.86 1205.68L1339.89 1205.72L1339.92 1205.76L1341.09 1204.82ZM1326.6 1203.25L1325.62 1202.11L1325.62 1202.11L1326.6 1203.25ZM1321.58 1226.06L1321.42 1227.55L1322.91 1227.71L1323.08 1226.22L1321.58 1226.06ZM1302.97 1224.04L1301.48 1223.88L1301.32 1225.37L1302.81 1225.53L1302.97 1224.04ZM1314 1189.2L1312.99 1188.09L1312.99 1188.09L1314 1189.2ZM1357.48 1193.92L1356.25 1194.78L1356.26 1194.79L1356.27 1194.81L1357.48 1193.92ZM1358.95 1232.11L1357.57 1231.53L1357.56 1231.54L1357.55 1231.56L1358.95 1232.11ZM1353.49 1242.38L1352.27 1241.51L1352.25 1241.53L1352.24 1241.55L1353.49 1242.38ZM1346.97 1250.72L1348.05 1251.76L1348.06 1251.75L1348.07 1251.74L1346.97 1250.72ZM1340.39 1257.97L1339.25 1257L1339.23 1257.02L1339.22 1257.04L1340.39 1257.97ZM1335.18 1265.92L1333.86 1265.21L1333.85 1265.24L1333.83 1265.26L1335.18 1265.92ZM1332.42 1283L1332.26 1284.49L1334.14 1284.7L1333.91 1282.82L1332.42 1283ZM1332.01 1291.83L1333.5 1291.99L1333.66 1290.5L1332.17 1290.34L1332.01 1291.83ZM1329.95 1310.8L1329.79 1312.29L1331.28 1312.45L1331.44 1310.96L1329.95 1310.8ZM1310.98 1308.74L1309.49 1308.57L1309.33 1310.07L1310.82 1310.23L1310.98 1308.74ZM1313.04 1289.77L1313.2 1288.28L1311.71 1288.11L1311.55 1289.61L1313.04 1289.77ZM1316.35 1280.78C1315.91 1278.75 1315.83 1276.32 1316.14 1273.45L1313.16 1273.12C1312.82 1276.22 1312.89 1278.99 1313.42 1281.41L1316.35 1280.78ZM1316.14 1273.45C1316.62 1269.03 1317.55 1265.31 1318.91 1262.26L1316.17 1261.04C1314.66 1264.44 1313.66 1268.48 1313.16 1273.12L1316.14 1273.45ZM1318.91 1262.26C1320.31 1259.12 1321.9 1256.31 1323.69 1253.82L1321.25 1252.08C1319.34 1254.74 1317.64 1257.73 1316.17 1261.04L1318.91 1262.26ZM1323.7 1253.8C1325.52 1251.17 1327.49 1248.73 1329.62 1246.49L1327.44 1244.43C1325.21 1246.78 1323.14 1249.34 1321.23 1252.1L1323.7 1253.8ZM1329.64 1246.47C1331.89 1243.99 1333.97 1241.32 1335.88 1238.45L1333.39 1236.78C1331.55 1239.54 1329.56 1242.09 1327.42 1244.45L1329.64 1246.47ZM1335.88 1238.45C1337.82 1235.54 1339.54 1232.25 1341.05 1228.59L1338.27 1227.45C1336.83 1230.95 1335.2 1234.06 1333.39 1236.78L1335.88 1238.45ZM1341.05 1228.58C1342.6 1224.72 1343.66 1220.1 1344.24 1214.76L1341.25 1214.43C1340.69 1219.59 1339.69 1223.92 1338.27 1227.46L1341.05 1228.58ZM1344.24 1214.76C1344.74 1210.11 1344.24 1206.34 1342.26 1203.88L1339.92 1205.76C1341.13 1207.26 1341.73 1210.01 1341.25 1214.43L1344.24 1214.76ZM1342.32 1203.96C1340.55 1201.44 1337.83 1200.06 1334.41 1199.69L1334.08 1202.67C1336.86 1202.97 1338.7 1204.02 1339.86 1205.68L1342.32 1203.96ZM1334.41 1199.69C1330.97 1199.31 1327.99 1200.07 1325.62 1202.11L1327.57 1204.38C1329.2 1202.99 1331.31 1202.37 1334.08 1202.67L1334.41 1199.69ZM1325.62 1202.11C1323.3 1204.11 1322.07 1207.67 1321.57 1212.3L1324.55 1212.62C1325.03 1208.18 1326.16 1205.6 1327.58 1204.38L1325.62 1202.11ZM1321.57 1212.3L1320.09 1225.9L1323.08 1226.22L1324.55 1212.62L1321.57 1212.3ZM1321.75 1224.57L1303.14 1222.55L1302.81 1225.53L1321.42 1227.55L1321.75 1224.57ZM1304.47 1224.2L1305.81 1211.85L1302.82 1211.53L1301.48 1223.88L1304.47 1224.2ZM1305.81 1211.85C1306.88 1201.93 1310.02 1194.83 1315 1190.32L1312.99 1188.09C1307.27 1193.27 1303.95 1201.17 1302.82 1211.53L1305.81 1211.85ZM1315 1190.32C1320.08 1185.73 1327.18 1183.82 1336.56 1184.83L1336.88 1181.85C1326.94 1180.77 1318.89 1182.76 1312.99 1188.09L1315 1190.32ZM1336.56 1184.83C1345.94 1185.85 1352.4 1189.24 1356.25 1194.78L1358.71 1193.07C1354.21 1186.6 1346.83 1182.93 1336.88 1181.85L1336.56 1184.83ZM1356.27 1194.81C1360.28 1200.3 1361.88 1207.91 1360.8 1217.82L1363.79 1218.15C1364.91 1207.78 1363.3 1199.34 1358.69 1193.04L1356.27 1194.81ZM1360.8 1217.82C1360.22 1223.21 1359.13 1227.77 1357.57 1231.53L1360.34 1232.68C1362.04 1228.59 1363.18 1223.74 1363.79 1218.15L1360.8 1217.82ZM1357.55 1231.56C1356.09 1235.28 1354.33 1238.59 1352.27 1241.51L1354.72 1243.24C1356.93 1240.11 1358.81 1236.57 1360.35 1232.65L1357.55 1231.56ZM1352.24 1241.55C1350.26 1244.52 1348.14 1247.24 1345.87 1249.7L1348.07 1251.74C1350.46 1249.15 1352.68 1246.31 1354.74 1243.21L1352.24 1241.55ZM1345.89 1249.68C1343.56 1252.11 1341.34 1254.55 1339.25 1257L1341.53 1258.95C1343.59 1256.54 1345.76 1254.15 1348.05 1251.76L1345.89 1249.68ZM1339.22 1257.04C1337.2 1259.55 1335.42 1262.28 1333.86 1265.21L1336.51 1266.62C1337.98 1263.85 1339.67 1261.28 1341.56 1258.91L1339.22 1257.04ZM1333.83 1265.26C1332.35 1268.31 1331.4 1271.83 1330.97 1275.78L1333.96 1276.11C1334.36 1272.43 1335.22 1269.26 1336.53 1266.58L1333.83 1265.26ZM1330.97 1275.78C1330.68 1278.49 1330.66 1280.96 1330.93 1283.18L1333.91 1282.82C1333.67 1280.88 1333.68 1278.64 1333.96 1276.11L1330.97 1275.78ZM1332.59 1281.51L1315.05 1279.61L1314.72 1282.59L1332.26 1284.49L1332.59 1281.51ZM1330.52 1291.66L1328.46 1310.63L1331.44 1310.96L1333.5 1291.99L1330.52 1291.66ZM1330.11 1309.3L1311.14 1307.24L1310.82 1310.23L1329.79 1312.29L1330.11 1309.3ZM1312.47 1308.9L1314.53 1289.93L1311.55 1289.61L1309.49 1308.57L1312.47 1308.9ZM1312.88 1291.26L1331.85 1293.32L1332.17 1290.34L1313.2 1288.28L1312.88 1291.26Z" fill="black"/>
</g>
<g clip-path="url(#clip12_167_2224)">
<rect width="394" height="254" transform="translate(1230.51 176.342) rotate(6.19527)" fill="white"/>
<rect x="1231.84" y="177.995" width="391" height="251" transform="rotate(6.19527 1231.84 177.995)" fill="white" stroke="black" stroke-width="3"/>
<rect x="1248.01" y="195.845" width="358" height="221" transform="rotate(6.19527 1248.01 195.845)" fill="#EA8C2C" stroke="black" stroke-width="3"/>
</g>
<g clip-path="url(#clip13_167_2224)">
<rect width="394" height="254" transform="translate(-87.0742 342.119) rotate(6.19527)" fill="white"/>
<rect x="-85.7449" y="343.772" width="391" height="251" transform="rotate(6.19527 -85.7449 343.772)" fill="white" stroke="black" stroke-width="3"/>
<rect x="-69.5769" y="361.622" width="358" height="221" transform="rotate(6.19527 -69.5769 361.622)" fill="#EA8C2C" stroke="black" stroke-width="3"/>
</g>
<g clip-path="url(#clip14_167_2224)">
<rect width="394" height="254" transform="translate(-187.59 1265.46) rotate(6.19527)" fill="white"/>
<rect x="-186.26" y="1267.11" width="391" height="251" transform="rotate(6.19527 -186.26 1267.11)" fill="white" stroke="black" stroke-width="3"/>
<rect x="-170.093" y="1284.96" width="358" height="221" transform="rotate(6.19527 -170.093 1284.96)" fill="#EA8C2C" stroke="black" stroke-width="3"/>
</g>
<g clip-path="url(#clip15_167_2224)">
<rect width="394" height="254" transform="translate(-153.848 959.959) rotate(6.19527)" fill="white"/>
<rect x="-152.518" y="961.612" width="391" height="251" transform="rotate(6.19527 -152.518 961.612)" fill="white" stroke="black" stroke-width="3"/>
<rect x="-136.35" y="979.462" width="358" height="221" transform="rotate(6.19527 -136.35 979.462)" fill="#EA8C2C" stroke="black" stroke-width="3"/>
</g>
<g clip-path="url(#clip16_167_2224)">
<rect width="394" height="254" transform="translate(698.121 1049.99) rotate(6.19527)" fill="white"/>
<rect x="699.45" y="1051.64" width="391" height="251" transform="rotate(6.19527 699.45 1051.64)" fill="white" stroke="black" stroke-width="3"/>
<rect x="715.618" y="1069.49" width="358" height="221" transform="rotate(6.19527 715.618 1069.49)" fill="#EA8C2C" stroke="black" stroke-width="3"/>
</g>
<g clip-path="url(#clip17_167_2224)">
<rect width="394" height="254" transform="translate(664.988 1357.3) rotate(6.19527)" fill="white"/>
<rect x="666.318" y="1358.96" width="391" height="251" transform="rotate(6.19527 666.318 1358.96)" fill="white" stroke="black" stroke-width="3"/>
<rect x="682.486" y="1376.81" width="358" height="221" transform="rotate(6.19527 682.486 1376.81)" fill="#EA8C2C" stroke="black" stroke-width="3"/>
</g>
<g clip-path="url(#clip18_167_2224)">
<rect width="394" height="254" transform="translate(764.812 435.598) rotate(6.19527)" fill="white"/>
<rect x="766.142" y="437.251" width="391" height="251" transform="rotate(6.19527 766.142 437.251)" fill="white" stroke="black" stroke-width="3"/>
<rect x="782.31" y="455.1" width="358" height="221" transform="rotate(6.19527 782.31 455.1)" fill="#EA8C2C" stroke="black" stroke-width="3"/>
</g>
<g clip-path="url(#clip19_167_2224)">
<rect width="394" height="254" transform="translate(345.277 390.057) rotate(6.19527)" fill="white"/>
<rect x="346.607" y="391.71" width="391" height="251" transform="rotate(6.19527 346.607 391.71)" fill="white" stroke="black" stroke-width="3"/>
<rect x="362.775" y="409.559" width="358" height="221" transform="rotate(6.19527 362.775 409.559)" fill="#EA8C2C" stroke="black" stroke-width="3"/>
</g>
<g clip-path="url(#clip20_167_2224)">
<rect width="394" height="254" transform="translate(278.367 1006.44) rotate(6.19527)" fill="white"/>
<rect x="279.697" y="1008.09" width="391" height="251" transform="rotate(6.19527 279.697 1008.09)" fill="white" stroke="black" stroke-width="3"/>
<rect x="295.865" y="1025.94" width="358" height="221" transform="rotate(6.19527 295.865 1025.94)" fill="#EA8C2C" stroke="black" stroke-width="3"/>
</g>
<g clip-path="url(#clip21_167_2224)">
<rect width="394" height="254" transform="translate(245.238 1313.75) rotate(6.19527)" fill="white"/>
<rect x="246.568" y="1315.41" width="391" height="251" transform="rotate(6.19527 246.568 1315.41)" fill="white" stroke="black" stroke-width="3"/>
<rect x="262.736" y="1333.26" width="358" height="221" transform="rotate(6.19527 262.736 1333.26)" fill="#EA8C2C" stroke="black" stroke-width="3"/>
</g>
<g clip-path="url(#clip22_167_2224)">
<rect width="394" height="254" transform="translate(1130.47 1097.93) rotate(6.19527)" fill="white"/>
<rect x="1131.8" y="1099.58" width="391" height="251" transform="rotate(6.19527 1131.8 1099.58)" fill="white" stroke="black" stroke-width="3"/>
<rect x="1147.97" y="1117.43" width="358" height="221" transform="rotate(6.19527 1147.97 1117.43)" fill="#EA8C2C" stroke="black" stroke-width="3"/>
</g>
<g clip-path="url(#clip23_167_2224)">
<rect width="394" height="254" transform="translate(1097.34 1405.25) rotate(6.19527)" fill="white"/>
<rect x="1098.67" y="1406.9" width="391" height="251" transform="rotate(6.19527 1098.67 1406.9)" fill="white" stroke="black" stroke-width="3"/>
<rect x="1114.84" y="1424.75" width="358" height="221" transform="rotate(6.19527 1114.84 1424.75)" fill="#EA8C2C" stroke="black" stroke-width="3"/>
</g>
<g clip-path="url(#clip24_167_2224)">
<rect width="394" height="254" transform="translate(1197.16 483.537) rotate(6.19527)" fill="white"/>
<rect x="1198.49" y="485.19" width="391" height="251" transform="rotate(6.19527 1198.49 485.19)" fill="white" stroke="black" stroke-width="3"/>
<rect x="1214.66" y="503.04" width="358" height="221" transform="rotate(6.19527 1214.66 503.04)" fill="#EA8C2C" stroke="black" stroke-width="3"/>
</g>
</g>
<defs>
<clipPath id="clip0_167_2224">
<rect width="1440" height="1700" fill="white"/>
</clipPath>
<clipPath id="clip1_167_2224">
<rect width="394" height="254" fill="white" transform="translate(-53.7266 34.9238) rotate(6.19527)"/>
</clipPath>
<clipPath id="clip2_167_2224">
<rect width="394" height="254" fill="white" transform="translate(-120.637 651.303) rotate(6.19527)"/>
</clipPath>
<clipPath id="clip3_167_2224">
<rect width="394" height="254" fill="white" transform="translate(-153.77 958.621) rotate(6.19527)"/>
</clipPath>
<clipPath id="clip4_167_2224">
<rect width="394" height="254" fill="white" transform="translate(731.465 742.793) rotate(6.19527)"/>
</clipPath>
<clipPath id="clip5_167_2224">
<rect width="394" height="254" fill="white" transform="translate(698.336 1050.11) rotate(6.19527)"/>
</clipPath>
<clipPath id="clip6_167_2224">
<rect width="394" height="254" fill="white" transform="translate(798.16 128.402) rotate(6.19527)"/>
</clipPath>
<clipPath id="clip7_167_2224">
<rect width="394" height="254" fill="white" transform="translate(378.625 82.8613) rotate(6.19527)"/>
</clipPath>
<clipPath id="clip8_167_2224">
<rect width="394" height="254" fill="white" transform="translate(311.715 699.24) rotate(6.19527)"/>
</clipPath>
<clipPath id="clip9_167_2224">
<rect width="394" height="254" fill="white" transform="translate(278.582 1006.55) rotate(6.19527)"/>
</clipPath>
<clipPath id="clip10_167_2224">
<rect width="394" height="254" fill="white" transform="translate(1163.82 790.73) rotate(6.19527)"/>
</clipPath>
<clipPath id="clip11_167_2224">
<rect width="394" height="254" fill="white" transform="translate(1130.69 1098.05) rotate(6.19527)"/>
</clipPath>
<clipPath id="clip12_167_2224">
<rect width="394" height="254" fill="white" transform="translate(1230.51 176.342) rotate(6.19527)"/>
</clipPath>
<clipPath id="clip13_167_2224">
<rect width="394" height="254" fill="white" transform="translate(-87.0742 342.119) rotate(6.19527)"/>
</clipPath>
<clipPath id="clip14_167_2224">
<rect width="394" height="254" fill="white" transform="translate(-187.59 1265.46) rotate(6.19527)"/>
</clipPath>
<clipPath id="clip15_167_2224">
<rect width="394" height="254" fill="white" transform="translate(-153.848 959.959) rotate(6.19527)"/>
</clipPath>
<clipPath id="clip16_167_2224">
<rect width="394" height="254" fill="white" transform="translate(698.121 1049.99) rotate(6.19527)"/>
</clipPath>
<clipPath id="clip17_167_2224">
<rect width="394" height="254" fill="white" transform="translate(664.988 1357.3) rotate(6.19527)"/>
</clipPath>
<clipPath id="clip18_167_2224">
<rect width="394" height="254" fill="white" transform="translate(764.812 435.598) rotate(6.19527)"/>
</clipPath>
<clipPath id="clip19_167_2224">
<rect width="394" height="254" fill="white" transform="translate(345.277 390.057) rotate(6.19527)"/>
</clipPath>
<clipPath id="clip20_167_2224">
<rect width="394" height="254" fill="white" transform="translate(278.367 1006.44) rotate(6.19527)"/>
</clipPath>
<clipPath id="clip21_167_2224">
<rect width="394" height="254" fill="white" transform="translate(245.238 1313.75) rotate(6.19527)"/>
</clipPath>
<clipPath id="clip22_167_2224">
<rect width="394" height="254" fill="white" transform="translate(1130.47 1097.93) rotate(6.19527)"/>
</clipPath>
<clipPath id="clip23_167_2224">
<rect width="394" height="254" fill="white" transform="translate(1097.34 1405.25) rotate(6.19527)"/>
</clipPath>
<clipPath id="clip24_167_2224">
<rect width="394" height="254" fill="white" transform="translate(1197.16 483.537) rotate(6.19527)"/>
</clipPath>
</defs>
</svg>
